<?xml version="1.0" encoding="UTF-8"?>
<!DOCTYPE svg PUBLIC "-//W3C//DTD SVG 1.1//EN" "http://www.w3.org/Graphics/SVG/1.1/DTD/svg11.dtd">
<!-- Creator: CorelDRAW 2021 (64-Bit) -->
<svg xmlns="http://www.w3.org/2000/svg" xml:space="preserve" width="133.57mm" height="129.27mm" version="1.1" style="shape-rendering:geometricPrecision; text-rendering:geometricPrecision; image-rendering:optimizeQuality; fill-rule:evenodd; clip-rule:evenodd"
viewBox="0 0 10845.81 10496.59"
 xmlns:xlink="http://www.w3.org/1999/xlink"
 xmlns:xodm="http://www.corel.com/coreldraw/odm/2003">
 <defs>
  <style type="text/css">
   <![CDATA[
    .fil0 {fill:#0A0A0A}
    .fil1 {fill:#0A0A0A}
    .fil2 {fill:white}
   ]]>
  </style>
 </defs>
 <g id="Capa_x0020_1">
  <metadata id="CorelCorpID_0Corel-Layer"/>
  <path class="fil0" d="M2.2 9313.88l5703.22 2.34c-48.52,-201.62 -366.4,-542.35 -366.4,-1462.37 0,-1085.97 674.42,-2117.91 1599.74,-2560.58 13.27,-6.34 30.95,-12.93 44.78,-20.6l49.69 -37.17c-140.56,-186.72 -781.67,-646.18 -974.73,-758.77 -450.39,-262.68 -343.8,-220.65 -541.43,-111.58 -742.78,409.95 -1679.61,408.79 -2402.62,-7.54 -162.74,-93.71 -116.55,-105.63 -286.28,-13.22 -185.83,101.17 -386.3,209.39 -550.74,321.87 -1059.75,724.87 -1723.62,1833.45 -2068.41,3119.1 -105.35,392.85 -226.94,1096.43 -206.83,1528.53z"/>
  <path class="fil1" d="M7949.2 5293.59c-1336.76,157.55 -2471.77,1331.45 -2307.6,2873.35 142.38,1337.21 1352.07,2489.74 2896.45,2311.36 1324.96,-153.03 2453.42,-1345.8 2292.4,-2871.68 -140.65,-1332.85 -1354.17,-2493 -2881.25,-2313.03z"/>
  <path class="fil1" d="M4133.72 9.79c-1151.03,107.66 -2111.98,1105.84 -1991.72,2393.02 105.7,1131.41 1117.62,2097.46 2392.51,1970.77 1134.28,-112.72 2091.34,-1114.87 1971.28,-2384.81 -106.44,-1125.9 -1107.48,-2097.27 -2372.07,-1978.98z"/>
  <path class="fil2" d="M7782.86 7435.87c-242.36,13.56 -577.73,-24.35 -802.5,8.06 -500.24,72.13 -504.49,800.76 -12.65,882.75 216.98,36.17 577.54,-5.46 816.82,9.43 24.51,248.92 -21.66,555.57 7.73,796.95 61.09,501.94 806.59,527.15 885.75,10.37 36.48,-238.2 -23.76,-570.12 12.81,-809.31 392.14,-5.25 1181.42,151.8 1182.47,-447.33 0.41,-231.65 -164.44,-410.38 -375.98,-442.47 -235.17,-35.66 -591.28,28.4 -812.28,-12.76 -10.83,-389.42 153.23,-1190.71 -454.2,-1183.22 -225.87,2.79 -406.55,174.43 -436.91,378.07 -35.33,237.04 23.73,569.91 -11.06,809.45z"/>
 </g>
</svg>
